<svg width="17" height="16" viewBox="0 0 17 16" fill="none" xmlns="http://www.w3.org/2000/svg">
<path fill-rule="evenodd" clip-rule="evenodd" d="M6.98463 4.56015C6.54383 4.89055 6.34463 5.28655 6.34463 5.65615C6.34463 6.02655 6.54383 6.42255 6.98463 6.75375C7.42623 7.08495 8.07263 7.31375 8.82063 7.31375C9.0328 7.31375 9.23629 7.39803 9.38631 7.54806C9.53634 7.69809 9.62063 7.90157 9.62063 8.11375C9.62063 8.32592 9.53634 8.5294 9.38631 8.67943C9.23629 8.82946 9.0328 8.91375 8.82063 8.91375C7.75983 8.91375 6.76863 8.59215 6.02463 8.03375C5.28063 7.47535 4.74463 6.64335 4.74463 5.65695C4.74463 4.66975 5.28063 3.83775 6.02463 3.27935C6.76863 2.72175 7.76063 2.40015 8.82063 2.40015C10.463 2.40015 12.0158 3.18655 12.6334 4.49615C12.6782 4.59122 12.7039 4.6942 12.7089 4.79918C12.7139 4.90417 12.6982 5.00911 12.6626 5.10803C12.6271 5.20694 12.5724 5.29788 12.5017 5.37566C12.431 5.45344 12.3457 5.51654 12.2506 5.56135C12.1556 5.60615 12.0526 5.6318 11.9476 5.63681C11.8426 5.64182 11.7377 5.6261 11.6387 5.59056C11.5398 5.55501 11.4489 5.50033 11.3711 5.42964C11.2933 5.35894 11.2302 5.27362 11.1854 5.17855C10.9054 4.58095 10.0318 4.00015 8.82143 4.00015C8.07343 4.00015 7.42623 4.22895 6.98463 4.56015Z" fill="#7F9C9F"/>
<path fill-rule="evenodd" clip-rule="evenodd" d="M10.3927 11.6664C10.8335 11.336 11.0319 10.94 11.0319 10.5704C11.0319 10.2 10.8335 9.80325 10.3919 9.47285C9.95109 9.14165 9.30389 8.91285 8.55669 8.91285C8.34452 8.91285 8.14103 8.82856 7.991 8.67853C7.84098 8.52851 7.75669 8.32502 7.75669 8.11285C7.75669 7.90068 7.84098 7.69719 7.991 7.54716C8.14103 7.39713 8.34452 7.31285 8.55669 7.31285C9.61749 7.31285 10.6087 7.63445 11.3527 8.19285C12.0967 8.75125 12.6319 9.58325 12.6319 10.5696C12.6319 11.556 12.0967 12.3889 11.3519 12.9465C10.6079 13.5049 9.61749 13.8265 8.55669 13.8265C6.91429 13.8265 5.36069 13.04 4.74389 11.7296C4.6534 11.5377 4.64285 11.3177 4.71456 11.1181C4.78628 10.9184 4.93438 10.7553 5.12629 10.6648C5.3182 10.5744 5.5382 10.5638 5.73789 10.6355C5.93758 10.7072 6.1006 10.8553 6.19109 11.0472C6.47269 11.6456 7.34629 12.2264 8.55669 12.2264C9.30469 12.2264 9.95109 11.9976 10.3927 11.6664ZM8.66709 0.800049C8.87926 0.800049 9.08275 0.884334 9.23278 1.03436C9.3828 1.18439 9.46709 1.38788 9.46709 1.60005V2.40005C9.46709 2.61222 9.3828 2.81571 9.23278 2.96573C9.08275 3.11576 8.87926 3.20005 8.66709 3.20005C8.45492 3.20005 8.25143 3.11576 8.1014 2.96573C7.95138 2.81571 7.86709 2.61222 7.86709 2.40005V1.60005C7.86709 1.38788 7.95138 1.18439 8.1014 1.03436C8.25143 0.884334 8.45492 0.800049 8.66709 0.800049Z" fill="#7F9C9F"/>
<path fill-rule="evenodd" clip-rule="evenodd" d="M8.66719 12.8C8.87936 12.8 9.08284 12.8843 9.23287 13.0344C9.3829 13.1844 9.46719 13.3879 9.46719 13.6V14.4C9.46719 14.6122 9.3829 14.8157 9.23287 14.9657C9.08284 15.1158 8.87936 15.2 8.66719 15.2C8.45501 15.2 8.25153 15.1158 8.1015 14.9657C7.95147 14.8157 7.86719 14.6122 7.86719 14.4V13.6C7.86719 13.3879 7.95147 13.1844 8.1015 13.0344C8.25153 12.8843 8.45501 12.8 8.66719 12.8Z" fill="#7F9C9F"/>
</svg>
