<svg width="14" height="16" viewBox="0 0 14 16" fill="none" xmlns="http://www.w3.org/2000/svg">
<path d="M13.6668 13.2396C13.6668 13.9965 13.4498 14.6458 13.0158 15.1875C12.5818 15.7292 12.0592 16 11.4481 16H2.55225C1.94113 16 1.41857 15.7292 0.984538 15.1875C0.55051 14.6458 0.333496 13.9965 0.333496 13.2396C0.333496 12.6493 0.36301 12.092 0.422038 11.5677C0.481066 11.0434 0.590441 10.5156 0.750163 9.98438C0.909885 9.45313 1.11301 8.99826 1.35954 8.61979C1.60607 8.24132 1.93245 7.93229 2.3387 7.69271C2.74495 7.45313 3.21197 7.33333 3.73975 7.33333C4.64947 8.22222 5.73627 8.66667 7.00016 8.66667C8.26405 8.66667 9.35086 8.22222 10.2606 7.33333C10.7884 7.33333 11.2554 7.45313 11.6616 7.69271C12.0679 7.93229 12.3943 8.24132 12.6408 8.61979C12.8873 8.99826 13.0904 9.45313 13.2502 9.98438C13.4099 10.5156 13.5193 11.0434 13.5783 11.5677C13.6373 12.092 13.6668 12.6493 13.6668 13.2396ZM11.0002 4C11.0002 5.10417 10.6095 6.04688 9.82829 6.82813C9.04704 7.60938 8.10433 8 7.00016 8C5.896 8 4.95329 7.60938 4.17204 6.82813C3.39079 6.04688 3.00016 5.10417 3.00016 4C3.00016 2.89583 3.39079 1.95313 4.17204 1.17188C4.95329 0.390625 5.896 0 7.00016 0C8.10433 0 9.04704 0.390625 9.82829 1.17188C10.6095 1.95313 11.0002 2.89583 11.0002 4Z" fill="#7F9C9F"/>
</svg>
